<svg xmlns="http://www.w3.org/2000/svg" viewBox="0 0 2234.51 609.85">
  <defs>
    <style>
      .cls-1{fill:red}
    </style>
  </defs>
  <g id="Layer_2" data-name="Layer 2">
    <g id="Layer_2-2" data-name="Layer 2">
      <path class="cls-1" d="M1326.81 177.11q0 26.31-3.87 46-6.2 29-21.86 42.75t-41.59 13.74q-15.87 0-26.12-5.42a41.26 41.26 0 0 1-16.44-15.86c-.26-.78-.65-1.1-1.16-1s-.78.58-.78 1.35v89.38q0 3.87-3.87 3.87h-19.73q-3.87 0-3.87-3.87V85q0-3.87 3.87-3.87h19.73q3.87 0 3.87 3.87v14.7c0 .78.26 1.23.78 1.36s.9-.2 1.16-1q13.92-22 44.49-22 24.38 0 38.89 13t21.47 41.59a186.73 186.73 0 0 1 5.03 44.46zM1299 179q0-30.94-5.8-48.36-5-14.31-13.93-21.67t-23.27-7.31q-13.56 0-21.87 7.35t-13 21.28q-5.81 17.42-5.8 48.75 0 32.11 6.58 49.91 4.63 13.16 12.38 20.12t20.89 7q25.55 0 36.37-25.93Q1299 210.39 1299 179zM1382.52 264.74q-18.18-15.28-22-41.2a381 381 0 0 1-2.32-44.89 361.3 361.3 0 0 1 2.32-44.11q3.48-25.53 21.86-41T1429 78.06q28.24 0 46.63 15.47t21.86 41q2.31 15.48 2.32 44.11 0 29.41-2.32 44.89-3.5 25.92-21.86 41.2T1429 280q-28.29 0-46.48-15.26zm74.48-19q11.41-10.25 13.74-27.27 1.54-14.31 1.55-39.47 0-25.53-1.55-39.47-1.93-17-13.35-27.27T1429 102q-17 0-28.24 10.26t-13.54 27.27q-1.56 13.94-1.55 39.47t1.55 39.47q1.92 17 13.34 27.27T1429 256q16.59 0 28-10.22zM1538.06 273.06V10q0-3.87 3.87-3.87h19.73q3.87 0 3.87 3.87v263.1q0 3.87-3.87 3.87h-19.73q-3.87-.04-3.87-3.91zM1611.38 39.36a21.33 21.33 0 0 1-6-15.47q0-9.67 6-15.67t15.67-6a21.33 21.33 0 0 1 15.47 6q6.2 6 6.2 15.67a21.17 21.17 0 0 1-21.67 21.66q-9.67 0-15.67-6.19zm1.35 233.7V85q0-3.87 3.87-3.87h19.73q3.87 0 3.87 3.87v188q0 3.87-3.87 3.87h-19.73q-3.87.06-3.87-3.81zM1764 102.82h-36.75a1.37 1.37 0 0 0-1.55 1.55v116.07q0 18.19 7.16 25.34t23 7.16h6.58q3.85 0 3.86 3.87v16.25q0 3.87-3.86 3.87l-12 .39q-25.15 0-38.3-10.26T1699 229V104.37a1.37 1.37 0 0 0-1.55-1.55h-19.34q-3.87 0-3.87-3.87V85q0-3.87 3.87-3.87h19.34a1.37 1.37 0 0 0 1.55-1.53V35.5q0-3.87 3.87-3.87h19q3.87 0 3.87 3.87v44.1a1.36 1.36 0 0 0 1.55 1.55H1764q3.87 0 3.87 3.87V99q.01 3.82-3.87 3.82zM1803.67 39.36a21.28 21.28 0 0 1-6-15.47q0-9.67 6-15.67t15.67-6a21.34 21.34 0 0 1 15.47 6q6.2 6 6.19 15.67a21.16 21.16 0 0 1-21.66 21.66q-9.67 0-15.67-6.19zm1.35 233.7V85q0-3.87 3.87-3.87h19.73q3.87 0 3.87 3.87v188q0 3.87-3.87 3.87h-19.73q-3.89.06-3.89-3.81zM1901 264.74q-18.18-15.28-22-41.2a387.33 387.33 0 0 1-2.32-44.89q0-19.72 2.32-44.49 3.48-25.15 22-40.63t46-15.47q27.46 0 46.23 14.7t21.86 36.76l1.16 8.12v.77a3.31 3.31 0 0 1-3.48 3.49l-19.73 1.16a4 4 0 0 1-4.26-3.49 18.2 18.2 0 0 0-.38-4.64q-2-13.53-13.35-23.21T1947 102q-17 0-28 10.45t-13 27.08a347.64 347.64 0 0 0-1.93 39.47 351.47 351.47 0 0 0 1.93 39.85q1.93 17 13 27.09t28 10.06q17 0 28.43-9.68t13-23.6l.38-3.09q.78-4.26 4.26-3.49l19.34 1.55q3.49.78 3.49 3.48v1.55a20.89 20.89 0 0 1-.78 4.64q-2.7 22.85-21.47 37.73T1947 280q-27.85 0-46-15.26zM2060 264.55q-18.18-14.31-18.18-36.76v-3.48q0-3.87 3.87-3.87h19c2.57 0 3.87 1.29 3.87 3.87V227q0 12.39 11 21.47t28.44 9.09q17 0 27.47-8.9a28.2 28.2 0 0 0 10.45-22.44 23.74 23.74 0 0 0-5.8-16.25 42.09 42.09 0 0 0-14.32-10.44q-8.52-3.87-23.6-8.9a224.3 224.3 0 0 1-30.2-12.36 59.16 59.16 0 0 1-20.31-17.22q-8.32-11-8.32-28.05 0-24.77 17.41-39.27t46-14.51q29.4 0 47 15.09t17.65 38.69v.77c0 2.58-1.3 3.87-3.87 3.87h-17.8q-3.87 0-3.87-3.87v-1.55q0-13.14-10.64-21.86t-28.44-8.7q-16.64 0-26.89 8.32a26.37 26.37 0 0 0-10.25 21.47q0 13.55 10.25 20.51t32.31 14.7a235.47 235.47 0 0 1 31.34 12.34 61.83 61.83 0 0 1 21.08 17.22q8.71 11 8.71 28.44 0 24.77-17.8 39.46T2108 278.86q-29.82 0-48-14.31zM1282.7 402.41c1.8.78 2.45 2.32 1.94 4.64l-5.81 29.41c-.26 2.58-1.8 3.36-4.64 2.32a40.2 40.2 0 0 0-12.77-1.93 51 51 0 0 0-7.35.38Q1239 438.4 1228.92 451t-10.06 30v111.77c0 2.59-1.29 3.87-3.87 3.87h-29.4c-2.58 0-3.87-1.28-3.87-3.87v-189.2c0-2.57 1.29-3.87 3.87-3.87H1215c2.58 0 3.87 1.3 3.87 3.87v24.77c0 .77.19 1.22.58 1.35s.71-.06 1-.58q13.92-31.33 42.56-31.34 11.57 0 19.69 4.64zM1394.71 561.24a39.3 39.3 0 0 0 13.74-17.6q1.15-3.5 4.64-2.71l26.31 5.8q3.87 1.15 2.71 4.64-7.35 22.85-25.54 35.6t-44.49 12.77q-30.18 0-48.75-15.09t-23.6-41.4a178.37 178.37 0 0 1-2.52-23q-.59-12.19-.58-32.31 0-19.74 1.94-31.34 3.48-27.07 22.82-43.53t48.75-16.44q32.11 0 51.85 18.18t22 48q1.17 13.16 1.17 48.37c0 2.58-1.3 3.86-3.87 3.86h-106a1.37 1.37 0 0 0-1.55 1.55 134.67 134.67 0 0 0 1.17 19q1.92 14.32 12 23.22t25.54 8.89q13.16-.08 22.26-6.46zm-48.36-123.62q-9.48 8.91-11.41 23.22a205.77 205.77 0 0 0-1.17 22.82 1.37 1.37 0 0 0 1.55 1.55h71.19a1.37 1.37 0 0 0 1.55-1.55q-.78-15.46-1.55-22.44-1.93-14.31-11.6-23.41t-24.38-9.09q-14.7 0-24.18 8.9zM1505.57 593.16 1457.2 404l-.38-1.55c0-1.8 1.16-2.71 3.48-2.71h29.41a4 4 0 0 1 4.25 3.49l30.57 134.26c.25.77.51 1.16.77 1.16s.52-.39.78-1.16l31-134.26a4 4 0 0 1 4.25-3.49h26.31a4 4 0 0 1 4.26 3.49l31.73 134.64c.25.78.51 1.16.77 1.16s.52-.38.77-1.16l31.35-134.64a4 4 0 0 1 4.25-3.49l29 .39a3.58 3.58 0 0 1 2.9 1.16 2.9 2.9 0 0 1 .19 3.1L1644.5 593.2q-.39 3.48-4.26 3.48h-29.79a4 4 0 0 1-4.25-3.48l-31.34-128.84c-.26-.78-.52-1.16-.78-1.16s-.52.38-.77 1.16l-30.21 128.8a4 4 0 0 1-4.26 3.48h-29a4 4 0 0 1-4.27-3.48zM1720.3 361.79q-7-7-7-17.8 0-11.22 7-18t17.8-6.77q10.83 0 17.8 7t7 17.8q0 10.83-7.15 17.8a24.3 24.3 0 0 1-17.61 7q-10.87-.07-17.84-7.03zm-1.16 231V403.57c0-2.57 1.29-3.87 3.87-3.87h29.41c2.57 0 3.87 1.3 3.87 3.87v189.2c0 2.59-1.3 3.87-3.87 3.87H1723c-2.57 0-3.86-1.28-3.86-3.87zM1898.28 402.41c1.8.78 2.45 2.32 1.93 4.64l-5.8 29.41c-.26 2.58-1.81 3.36-4.64 2.32a40.2 40.2 0 0 0-12.77-1.93 50.93 50.93 0 0 0-7.35.38q-15.09 1.17-25.15 13.74t-10.06 30v111.8c0 2.59-1.29 3.87-3.87 3.87h-29.41c-2.58 0-3.87-1.28-3.87-3.87v-189.2c0-2.57 1.29-3.87 3.87-3.87h29.41c2.58 0 3.87 1.3 3.87 3.87v24.77c0 .77.19 1.22.58 1.35s.71-.06 1-.58q13.92-31.33 42.56-31.34 11.58 0 19.7 4.64zM2010.29 561.24a39.3 39.3 0 0 0 13.74-17.6q1.15-3.5 4.64-2.71l26.31 5.8c2.57.77 3.48 2.32 2.71 4.64q-7.36 22.85-25.54 35.6t-44.49 12.77q-30.18 0-48.75-15.09t-23.61-41.4a180.2 180.2 0 0 1-2.51-23q-.58-12.19-.58-32.31 0-19.74 1.93-31.34 3.48-27.07 22.83-43.53t48.75-16.44q32.12 0 51.85 18.18t22 48q1.17 13.16 1.16 48.37c0 2.58-1.29 3.86-3.87 3.86h-106a1.37 1.37 0 0 0-1.55 1.55 136.32 136.32 0 0 0 1.16 19q1.93 14.32 12 23.22t25.53 8.89q13.2-.08 22.29-6.46zm-48.36-123.62q-9.5 8.91-11.42 23.22a208.35 208.35 0 0 0-1.16 22.82 1.37 1.37 0 0 0 1.55 1.55h71.19a1.37 1.37 0 0 0 1.55-1.55q-.78-15.46-1.55-22.44-1.93-14.31-11.61-23.41t-24.37-9.09q-14.71 0-24.18 8.9zM2201.23 325.8h29.41c2.57 0 3.87 1.3 3.87 3.87v263.1c0 2.59-1.3 3.87-3.87 3.87h-29.41c-2.58 0-3.87-1.28-3.87-3.87v-13.15a1.24 1.24 0 0 0-.77-1.16.76.76 0 0 0-1.16.38q-13.93 20.89-43.72 20.9-24 0-38.69-13.93t-21.67-42.95a195.84 195.84 0 0 1-4.65-44.11 226.26 226.26 0 0 1 3.87-44.1q11.61-58 63.07-58 15.09 0 25.15 5a42.37 42.37 0 0 1 16.64 15.09 2.07 2.07 0 0 0 1.35.77c.39 0 .58-.39.58-1.16v-86.68c0-2.57 1.29-3.87 3.87-3.87zM2197 498q0-29-5.42-44.11-3.48-12.37-10.64-18.76t-18.77-6.39q-22.83 0-31.72 24.38-6.19 17.41-6.19 44.88 0 27.85 5 42.95 8.11 26.7 32.5 26.69 22.42 0 30.18-25.92Q2197 526.23 2197 498zM1105.69 22.85a22.86 22.86 0 1 0-37.17 17.81V380c0 .48-.28 48.72-24.26 96.69-29.68 59.31-81.26 91.2-153.45 94.84V62.25a42.28 42.28 0 0 0-84.56 0V380c0 .48-.27 48.72-24.26 96.69-29.67 59.35-81.26 91.21-153.45 94.85V34.15A14.18 14.18 0 0 0 614.36 20c-2.24 0-55.48.31-109.37 27.25-50.58 25.29-110.88 79.3-110.88 193V558a13.92 13.92 0 1 1-27.83 0V40.76c0-16.67-11.56-29.76-28.11-31.83s-31 7.78-35.07 24L193.54 465a141.62 141.62 0 0 1-137.4 106.88H41.46a23.32 23.32 0 1 0 .72 28.36h14A170 170 0 0 0 221 471.94L330.59 39.85c.25-1 .81-3.18 4.07-2.78s3.26 2.71 3.26 3.69V558a42.28 42.28 0 1 0 84.55 0V240.22c0-79.28 31.75-135.53 94.36-167.21 32.36-16.37 65.24-21.88 83.35-23.74v536.79a14.18 14.18 0 0 0 14.18 14.18c113.7 0 167.71-60.29 193-110.87 26.95-53.9 27.25-107.14 27.25-109.38V62.25a13.92 13.92 0 0 1 27.84 0v523.81a14.18 14.18 0 0 0 14.18 14.18c113.69 0 167.71-60.29 193-110.87 26.94-53.9 27.25-107.14 27.25-109.38V40.87a22.79 22.79 0 0 0 8.81-18.02z"/>
    </g>
  </g>
</svg>
