<svg id="Layer_1" data-name="Layer 1" xmlns="http://www.w3.org/2000/svg" viewBox="0 0 2234.51 609.85"><defs><style>.cls-1{fill:#310e31;}.cls-2{fill:#fff4e0;}</style></defs><rect class="cls-1" width="2234.51" height="609.85"/><path class="cls-2" d="M1299.56,193.75q0,22.88-3.37,40-5.4,25.23-19,37.19t-36.18,12q-13.8,0-22.72-4.72a35.82,35.82,0,0,1-14.3-13.8c-.23-.68-.57-.95-1-.87s-.68.51-.68,1.18v77.75q0,3.38-3.37,3.37h-17.16c-2.24,0-3.37-1.12-3.37-3.37V113.62c0-2.25,1.13-3.37,3.37-3.37h17.16q3.38,0,3.37,3.37V126.4c0,.68.23,1.07.68,1.19s.78-.18,1-.87q12.1-19.14,38.7-19.14,21.21,0,33.83,11.31t18.68,36.18A163,163,0,0,1,1299.56,193.75Zm-24.2,1.64q0-26.91-5-42.07-4.35-12.45-12.12-18.85T1238,128.11q-11.81,0-19,6.39T1207.62,153q-5.05,15.15-5,42.4,0,27.95,5.72,43.42,4,11.46,10.77,17.51t18.17,6.09q22.23,0,31.64-22.56Q1275.36,222.69,1275.36,195.39Z"/><path class="cls-2" d="M1348,270q-15.81-13.29-19.14-35.84a333.11,333.11,0,0,1-2-39.06,315.44,315.44,0,0,1,2-38.37q3-22.2,19-35.67t40.56-13.46q24.55,0,40.56,13.46t19,35.66q2,13.47,2,38.38,0,25.57-2,39-3,22.55-19,35.84t-40.56,13.28Q1363.84,283.25,1348,270Zm64.79-16.53q9.93-8.92,12-23.72a343.22,343.22,0,0,0,1.35-34.34q0-22.21-1.35-34.34-1.68-14.79-11.62-23.72t-24.69-8.93q-14.79,0-24.57,8.93t-11.78,23.72q-1.35,12.13-1.35,34.34t1.35,34.34q1.67,14.79,11.6,23.72t24.75,8.93q14.43,0,24.35-8.9Z"/><path class="cls-2" d="M1483.33,277.22V48.37c0-2.24,1.12-3.37,3.37-3.37h17.16c2.25,0,3.37,1.13,3.37,3.37V277.25q0,3.38-3.37,3.37H1486.7Q1483.33,280.57,1483.33,277.22Z"/><path class="cls-2" d="M1547.12,73.91a18.53,18.53,0,0,1-5.22-13.46q0-8.4,5.22-13.63t13.63-5.22a18.59,18.59,0,0,1,13.46,5.22q5.38,5.22,5.39,13.63a18.42,18.42,0,0,1-18,18.85h-.87Q1552.34,79.3,1547.12,73.91Zm1.17,203.31V113.62q0-3.37,3.37-3.37h17.16c2.24,0,3.37,1.12,3.37,3.37V277.16c0,2.25-1.13,3.37-3.37,3.37h-17.16C1549.41,280.57,1548.29,279.46,1548.29,277.22Z"/><path class="cls-2" d="M1679.88,129.12h-32a1.18,1.18,0,0,0-1.35,1,1,1,0,0,0,0,.34v101q0,15.83,6.22,22t20,6.23h5.73q3.35,0,3.36,3.37v14.14q0,3.36-3.36,3.36l-10.44.34q-21.88,0-33.32-8.92t-11.43-33.11V130.47a1.19,1.19,0,0,0-1-1.35,1,1,0,0,0-.34,0h-16.82q-3.37,0-3.37-3.37V113.62q0-3.37,3.37-3.37H1622a1.2,1.2,0,0,0,1.35-1,1.61,1.61,0,0,0,0-.31V70.55q0-3.36,3.37-3.36h16.52q3.38,0,3.37,3.36v38.37a1.19,1.19,0,0,0,1,1.35,2.16,2.16,0,0,0,.36,0h31.93q3.38,0,3.37,3.36v12.16C1683.26,128,1682.13,129.12,1679.88,129.12Z"/><path class="cls-2" d="M1714.4,73.91a18.47,18.47,0,0,1-5.22-13.46q0-8.4,5.22-13.63T1728,41.6a18.63,18.63,0,0,1,13.46,5.22q5.38,5.22,5.38,13.63a18.42,18.42,0,0,1-18,18.85H1728Q1719.62,79.3,1714.4,73.91Zm1.17,203.31V113.62q0-3.37,3.37-3.37h17.16c2.24,0,3.37,1.12,3.37,3.37V277.16c0,2.25-1.13,3.37-3.37,3.37h-17.16c-2.26,0-3.39-1.07-3.39-3.31Z"/><path class="cls-2" d="M1799.07,270q-15.83-13.29-19.14-35.84a337.51,337.51,0,0,1-2-39.06q0-17.15,2-38.7,3-21.87,19.14-35.34t40-13.46q23.89,0,40.22,12.79t19,32l1,7.06v.67a2.87,2.87,0,0,1-2.72,3h-.31l-17.16,1a3.48,3.48,0,0,1-3.71-3,16.11,16.11,0,0,0-.33-4q-1.74-11.78-11.61-20.19t-24.41-8.46q-14.79,0-24.36,9.1t-11.3,23.55a300.71,300.71,0,0,0-1.68,34.34,304.19,304.19,0,0,0,1.68,34.67q1.68,14.79,11.3,23.56t24.36,8.76q14.79,0,24.74-8.43t11.3-20.53l.34-2.68q.68-3.72,3.7-3l16.83,1.35q3,.67,3,3v1.35a17.88,17.88,0,0,1-.68,4q-2.34,19.88-18.67,32.82t-40.59,13Q1814.86,283.25,1799.07,270Z"/><path class="cls-2" d="M1937.39,269.81q-15.83-12.45-15.82-32v-3q0-3.37,3.37-3.37h16.53c2.23,0,3.36,1.12,3.36,3.37v2.34q0,10.77,9.57,18.67t24.74,7.91q14.79,0,23.9-7.74a24.52,24.52,0,0,0,9.09-19.52,20.68,20.68,0,0,0-5-14.14,36.68,36.68,0,0,0-12.46-9.08,218.37,218.37,0,0,0-20.53-7.74,194.16,194.16,0,0,1-26.27-10.76,51.19,51.19,0,0,1-17.67-15q-7.25-9.57-7.24-24.4,0-21.54,15.14-34.16t40-12.62q25.58,0,40.89,13.12t15.35,33.66V156c0,2.25-1.13,3.37-3.36,3.37h-15.49c-2.24,0-3.37-1.12-3.37-3.37v-1.35q0-11.43-9.25-19t-24.74-7.57q-14.47,0-23.39,7.24A22.88,22.88,0,0,0,1945.8,154q0,11.79,8.92,17.85t28.1,12.78a206.13,206.13,0,0,1,27.27,10.74,53.9,53.9,0,0,1,18.34,15q7.58,9.57,7.57,24.74,0,21.55-15.48,34.33t-41.38,12.82Q1953.21,282.26,1937.39,269.81Z"/><path class="cls-2" d="M1261.18,389.74c1.57.68,2.14,2,1.69,4l-5,25.58c-.23,2.25-1.57,2.93-4,2a35.19,35.19,0,0,0-11.11-1.68,45.53,45.53,0,0,0-6.39.33q-13.11,1-21.88,12t-8.75,26.1v97.23c0,2.26-1.13,3.37-3.37,3.37H1176.7c-2.24,0-3.36-1.11-3.36-3.37V390.75c0-2.23,1.12-3.37,3.36-3.37h25.59c2.24,0,3.37,1.14,3.37,3.37V412.3c0,.67.16,1.06.5,1.17s.62-.05.87-.5q12.1-27.25,37-27.26Q1254.12,385.71,1261.18,389.74Z"/><path class="cls-2" d="M1358.63,527.91a34.14,34.14,0,0,0,11.95-15.31c.67-2,2-2.81,4-2.35l22.88,5c2.25.67,3,2,2.36,4q-6.39,19.88-22.22,31t-38.7,11.11q-26.25,0-42.41-13.13t-20.53-36a154.25,154.25,0,0,1-2.19-20q-.52-10.61-.51-28.11,0-17.17,1.69-27.27,3-23.55,19.85-37.86t42.41-14.31q27.93,0,45.11,15.82t19.14,41.76q1,11.44,1,42.08c0,2.24-1.13,3.35-3.36,3.35h-92.22a1.2,1.2,0,0,0-1.35,1,1.93,1.93,0,0,0,0,.34,118.63,118.63,0,0,0,1,16.53A31.61,31.61,0,0,0,1317,525.8q8.78,7.74,22.22,7.73Q1350.71,533.47,1358.63,527.91Zm-42.07-107.54q-8.25,7.75-9.93,20.2a178,178,0,0,0-1,19.85,1.19,1.19,0,0,0,1,1.35,1,1,0,0,0,.34,0h61.93a1.19,1.19,0,0,0,1.35-1,1.93,1.93,0,0,0,0-.34q-.67-13.44-1.35-19.52a33.08,33.08,0,0,0-10.09-20.36q-8.41-7.92-21.21-7.91T1316.56,420.37Z"/><path class="cls-2" d="M1455.07,555.68,1413,391.13l-.33-1.35c0-1.57,1-2.36,3-2.36h25.59a3.48,3.48,0,0,1,3.7,3l26.59,116.79c.22.67.44,1,.67,1s.45-.34.68-1l27-116.79a3.47,3.47,0,0,1,3.69-3h22.89a3.48,3.48,0,0,1,3.71,3l27.6,117.12c.22.68.45,1,.67,1s.45-.33.67-1l27.27-117.12a3.49,3.49,0,0,1,3.7-3l25.23.34a3.08,3.08,0,0,1,2.52,1,2.52,2.52,0,0,1,.17,2.69l-42.07,164.26c-.23,2-1.46,3-3.71,3h-25.91a3.48,3.48,0,0,1-3.7-3l-27.27-112.09c-.22-.67-.45-1-.67-1s-.46.33-.67,1l-26.28,112a3.48,3.48,0,0,1-3.71,3h-25.23A3.47,3.47,0,0,1,1455.07,555.68Z"/><path class="cls-2" d="M1641.87,354.41a21,21,0,0,1-6.09-15.49q0-9.76,6.09-15.66t15.48-5.89q9.42,0,15.49,6.09a21.14,21.14,0,0,1,6.09,15.49,20.7,20.7,0,0,1-6.22,15.48,21.12,21.12,0,0,1-15.32,6.09Q1647.92,360.46,1641.87,354.41Zm-1,201V390.75c0-2.23,1.12-3.37,3.37-3.37h25.58c2.24,0,3.37,1.14,3.37,3.37V555.34c0,2.26-1.13,3.37-3.37,3.37h-25.59c-2.24,0-3.36-1.11-3.36-3.37Z"/><path class="cls-2" d="M1796.7,389.74c1.57.68,2.13,2,1.68,4l-5.05,25.58c-.22,2.25-1.57,2.93-4,2a35.19,35.19,0,0,0-11.11-1.68,45.59,45.59,0,0,0-6.4.33q-13.12,1-21.87,12t-8.76,26.09v97.26c0,2.26-1.12,3.37-3.36,3.37h-25.59c-2.24,0-3.37-1.11-3.37-3.37V390.75c0-2.23,1.13-3.37,3.37-3.37h25.59c2.24,0,3.36,1.14,3.36,3.37V412.3q0,1,.51,1.17c.34.12.62-.05.87-.5q12.11-27.25,37-27.26Q1789.64,385.71,1796.7,389.74Z"/><path class="cls-2" d="M1894.14,527.91a34.14,34.14,0,0,0,11.95-15.31q1-3,4-2.35l22.89,5c2.23.67,3,2,2.36,4q-6.41,19.88-22.22,31t-38.7,11.11q-26.26,0-42.41-13.13t-20.54-36a156.21,156.21,0,0,1-2.19-20q-.49-10.61-.5-28.11,0-17.17,1.68-27.27,3-23.55,19.86-37.86t42.41-14.31q27.95,0,45.1,15.82T1937,442.29q1,11.44,1,42.08c0,2.24-1.12,3.35-3.37,3.35h-92.21a1.2,1.2,0,0,0-1.35,1,1.93,1.93,0,0,0,0,.34,118.62,118.62,0,0,0,1,16.53,31.61,31.61,0,0,0,10.44,20.2q8.76,7.74,22.21,7.73Q1886.24,533.47,1894.14,527.91Zm-42.07-107.54q-8.27,7.75-9.93,20.2a180.38,180.38,0,0,0-1,19.85,1.18,1.18,0,0,0,1,1.35,1,1,0,0,0,.34,0h61.93a1.19,1.19,0,0,0,1.35-1,1.93,1.93,0,0,0,0-.34q-.69-13.44-1.35-19.52a33.09,33.09,0,0,0-10.1-20.36q-8.43-7.92-21.2-7.91T1852.07,420.37Z"/><path class="cls-2" d="M2060.25,323.1h25.58c2.24,0,3.37,1.13,3.37,3.36V555.34c0,2.26-1.13,3.37-3.37,3.37h-25.58c-2.25,0-3.37-1.11-3.37-3.37V543.9a1.09,1.09,0,0,0-.67-1,.66.66,0,0,0-.92.16l-.09.18q-12.12,18.16-38,18.18-20.88,0-33.66-12.12t-18.85-37.37a170.05,170.05,0,0,1-4.05-38.37,197.35,197.35,0,0,1,3.37-38.36q10.1-50.46,54.87-50.46,13.13,0,21.88,4.35a36.9,36.9,0,0,1,14.47,13.13,1.78,1.78,0,0,0,1.18.67c.34,0,.5-.34.5-1V326.46C2056.88,324.23,2058,323.1,2060.25,323.1Zm-3.68,149.8q0-25.23-4.72-38.37-3-10.77-9.25-16.32t-16.33-5.56q-19.86,0-27.6,21.21-5.39,15.13-5.38,39,0,24.23,4.35,37.36,7,23.24,28.27,23.22,19.5,0,26.26-22.55Q2056.56,497.46,2056.57,472.9Z"/><path class="cls-2" d="M1107.2,59.55A19.89,19.89,0,1,0,1074.86,75V370.25c0,.42-.24,42.38-21.1,84.11-25.82,51.6-70.7,79.34-133.5,82.51v-443a36.78,36.78,0,1,0-73.56,0V370.25c0,.42-.23,42.38-21.1,84.11-25.81,51.63-70.69,79.35-133.49,82.52V69.38a12.35,12.35,0,0,0-12.34-12.31c-1.95,0-48.26.27-95.15,23.71-44,22-96.45,69-96.45,167.89V525.1a12.11,12.11,0,1,1-24.21.65c0-.22,0-.44,0-.65v-450A27.3,27.3,0,0,0,439.5,47.44c-14.4-1.8-27,6.77-30.51,20.88L313.68,444.19a123.2,123.2,0,0,1-119.53,93H181.38a20.28,20.28,0,1,0,.63,24.67h12.18A147.88,147.88,0,0,0,337.57,450.23L432.91,74.34c.22-.87.7-2.77,3.54-2.42s2.83,2.36,2.83,3.21v450a36.78,36.78,0,0,0,73.56,1.13V248.65c0-69,27.62-117.91,82.08-145.46,28.16-14.25,56.76-19,72.51-20.66v467a12.34,12.34,0,0,0,12.34,12.33c98.91,0,145.9-52.45,167.9-96.45,23.44-46.89,23.7-93.2,23.7-95.15V93.82a12.11,12.11,0,0,1,24.22,0V549.51a12.34,12.34,0,0,0,12.34,12.33c98.9,0,145.9-52.45,167.9-96.45,23.43-46.89,23.7-93.2,23.7-95.15v-295A19.86,19.86,0,0,0,1107.2,59.55Z"/></svg>