<svg xmlns="http://www.w3.org/2000/svg" viewBox="0 0 1390.3 1401.54"><defs><style>.cls-1{fill:#231f20;}</style></defs><title>polw_secondary</title><g id="Layer_2" data-name="Layer 2"><g id="Layer_2-2" data-name="Layer 2"><path class="cls-1" d="M732.29,288.78A149.43,149.43,0,0,1,729.73,318q-7.68,38.4-41.47,38.4-18.69,0-27.64-13.06c-.18-.51-.43-.72-.77-.64s-.51.39-.51.9v57.08a2.26,2.26,0,0,1-2.56,2.56H637.32a2.26,2.26,0,0,1-2.56-2.56V226.57a2.26,2.26,0,0,1,2.56-2.56h19.46a2.27,2.27,0,0,1,2.56,2.56v8.19a.84.84,0,0,0,.38.77c.26.17.55.09.9-.26Q670.08,222,689.29,222q16.13,0,25.85,9.22t14.08,28.41A129.78,129.78,0,0,1,732.29,288.78Zm-24.83.51q0-18.18-3.07-28.42-2.82-8.7-7.94-13.18t-13.56-4.48q-7.95,0-12.8,4.48t-7.43,12.93q-3.06,10.23-3.07,28.67,0,18.94,3.33,29.18,2.55,8.19,7.29,12.42t12.42,4.22q14.85,0,21-16.13Q707.46,308.23,707.46,289.29Z"/><path class="cls-1" d="M771,346q-12.81-10.37-15.36-28.29A181.77,181.77,0,0,1,753.54,289a174,174,0,0,1,2.05-28.41Q758.14,243,771,232.46T803.72,222q19.71,0,32.51,10.5t15.36,27.9q2,11,2,28.67t-2,28.67Q849,335.63,836.35,346t-32.63,10.37Q783.74,356.36,771,346Zm48.77-16.77a25.69,25.69,0,0,0,8.06-15.61A223.74,223.74,0,0,0,829.06,289a212.49,212.49,0,0,0-1.28-24.32,25.69,25.69,0,0,0-8.06-15.61,23.38,23.38,0,0,0-16.26-5.89,23,23,0,0,0-16,5.89,25.64,25.64,0,0,0-8.06,15.61,223.43,223.43,0,0,0-1,24.32,226.5,226.5,0,0,0,1,24.58,25.64,25.64,0,0,0,8.06,15.61q6.52,5.89,16.26,5.89A23,23,0,0,0,819.72,329.22Z"/><path class="cls-1" d="M878.46,351.75V177.67a2.26,2.26,0,0,1,2.56-2.56h19.46a2.27,2.27,0,0,1,2.56,2.56V351.75a2.26,2.26,0,0,1-2.56,2.56H881A2.26,2.26,0,0,1,878.46,351.75Z"/><path class="cls-1" d="M933,198.92a15.94,15.94,0,0,1-4.61-11.77q0-7.43,4.61-11.91a16.2,16.2,0,0,1,11.77-4.48,15.78,15.78,0,0,1,16.39,16.39,15.69,15.69,0,0,1-4.74,11.77,17.18,17.18,0,0,1-23.42,0Zm-.77,152.83V226.57a2.26,2.26,0,0,1,2.56-2.56h19.46a2.27,2.27,0,0,1,2.56,2.56V351.75a2.26,2.26,0,0,1-2.56,2.56H934.78A2.26,2.26,0,0,1,932.22,351.75Z"/><path class="cls-1" d="M1042,243h-22.79a.91.91,0,0,0-1,1v70.14q0,10.5,4.22,14.72t13.19,4.22h4.86a2.26,2.26,0,0,1,2.56,2.56v16.13a2.26,2.26,0,0,1-2.56,2.56l-10,.26q-17.92,0-27-6.79t-9.09-25.21V244a.91.91,0,0,0-1-1H980.86a2.26,2.26,0,0,1-2.56-2.56V226.57a2.26,2.26,0,0,1,2.56-2.56H993.4a.9.9,0,0,0,1-1V193.55A2.26,2.26,0,0,1,997,191h18.69a2.26,2.26,0,0,1,2.56,2.56V223a.9.9,0,0,0,1,1H1042a2.27,2.27,0,0,1,2.56,2.56v13.82A2.26,2.26,0,0,1,1042,243Z"/><path class="cls-1" d="M1068.91,198.92a15.93,15.93,0,0,1-4.6-11.77q0-7.43,4.6-11.91a16.24,16.24,0,0,1,11.78-4.48,15.77,15.77,0,0,1,16.38,16.39,15.72,15.72,0,0,1-4.73,11.77,17.19,17.19,0,0,1-23.43,0Zm-.76,152.83V226.57a2.26,2.26,0,0,1,2.56-2.56h19.45a2.26,2.26,0,0,1,2.56,2.56V351.75a2.26,2.26,0,0,1-2.56,2.56h-19.45A2.26,2.26,0,0,1,1068.15,351.75Z"/><path class="cls-1" d="M1137.13,346q-12.66-10.37-15.48-28.29a192.55,192.55,0,0,1-1.8-28.92,212.43,212.43,0,0,1,1.8-28.42q2.8-17.4,15.61-27.9t32.26-10.5q18.93,0,32,10a39.3,39.3,0,0,1,15.61,25.59l1,6.15c0,1.53-.85,2.47-2.56,2.81L1196.4,268h-.52c-1,0-1.7-.6-2-1.79l-.26-1-.51-3.07a22,22,0,0,0-7.68-13.44q-6.41-5.51-16.13-5.5t-16,5.89q-6.27,5.88-7.55,15.61a206.09,206.09,0,0,0-1.28,24.32,164.88,164.88,0,0,0,1.53,24.83q1.29,9.74,7.43,15.49t15.87,5.76q10,0,16.38-5.5a21,21,0,0,0,7.43-13.7l.25-2.56a2.28,2.28,0,0,1,2.82-2.3l19.2,1.28c1.7,0,2.56.94,2.56,2.81l-.77,4.35a38.77,38.77,0,0,1-15.1,26.63q-13.07,10.25-32.51,10.24Q1149.79,356.36,1137.13,346Z"/><path class="cls-1" d="M1248,346.12q-12.66-9.74-12.67-25.09v-2.56a2.26,2.26,0,0,1,2.56-2.56H1256a2.27,2.27,0,0,1,2.56,2.56V320q0,6.9,6.65,12t16.39,5.12q9.72,0,15.74-4.87a14.9,14.9,0,0,0,6-12,12.74,12.74,0,0,0-3.46-9.21,25.93,25.93,0,0,0-8.45-5.76q-5-2.18-14.72-5.51a138.14,138.14,0,0,1-20.35-8.06,40.78,40.78,0,0,1-14.21-12q-5.88-7.81-5.88-19.84,0-17.15,12.16-27.14t32.38-10q20.48,0,32.89,10.24t12.42,26.88v.51a2.26,2.26,0,0,1-2.56,2.56H1305.7a2.26,2.26,0,0,1-2.56-2.56v-1a15.05,15.05,0,0,0-6.14-12.29q-6.15-4.86-16.13-4.87-9.48,0-15.23,4.61a14.43,14.43,0,0,0-5.76,11.78,12.2,12.2,0,0,0,3.33,8.83,27.24,27.24,0,0,0,8.32,5.76q5,2.31,14.72,5.63a181.14,181.14,0,0,1,21.11,8.45A42.42,42.42,0,0,1,1321.83,299q6.14,7.68,6.14,19.71,0,17.14-12.54,27.13t-33.79,10Q1260.64,355.85,1248,346.12Z"/><path class="cls-1" d="M237,1111.83q2,1,1.53,3.84l-4.35,23.3c-.17,2-1.37,2.65-3.58,1.79a21.39,21.39,0,0,0-7.68-1.28,41.86,41.86,0,0,0-5.38.51,20.23,20.23,0,0,0-14.46,7.94q-5.76,7.17-5.76,17.92V1238a3.07,3.07,0,0,1-3.08,3.07H170.69a3.07,3.07,0,0,1-3.07-3.07V1113.37a3.06,3.06,0,0,1,3.07-3.07h23.55a3.06,3.06,0,0,1,3.08,3.07v11c0,.68.12,1.06.38,1.15s.55-.13.9-.64q9.21-16.12,25.85-16.13A24.86,24.86,0,0,1,237,1111.83Z"/><path class="cls-1" d="M353.73,1173.27l-.26,11q0,3.08-3.07,3.07H281.79a1.13,1.13,0,0,0-1.28,1.28q.51,7.17,1,10.5a21.55,21.55,0,0,0,7.17,13.56q5.88,5.13,14.84,5.12a23.68,23.68,0,0,0,12.93-3.84,22.85,22.85,0,0,0,8.06-10q1.29-2.82,3.84-2l21,4.35q3.06,1,2,3.84-5.12,15.88-17.53,24.45t-30.34,8.58q-21.24,0-34-10.24t-16.64-28.42a110,110,0,0,1-1.67-14.59q-.37-7.68-.38-20.48,0-13.31,1.28-20.22,2.55-18.69,15.87-29.83t33.79-11.13q22.28,0,36,12.54t15.23,33Q353.73,1162.27,353.73,1173.27Zm-65.66-34.43a21.85,21.85,0,0,0-6.79,13.44,95.89,95.89,0,0,0-.77,12.8,1.13,1.13,0,0,0,1.28,1.28H322.5a1.13,1.13,0,0,0,1.28-1.28q-.52-8.7-1-12.54A21,21,0,0,0,316.1,1139a20.17,20.17,0,0,0-14.08-5.12Q293.58,1133.85,288.07,1138.84Z"/><path class="cls-1" d="M396.73,1238.55,365,1113.37v-1c0-1.53.94-2.3,2.82-2.3h23a3.06,3.06,0,0,1,3.32,2.82l17.67,80.38c.16.68.42,1,.76,1s.6-.34.77-1l17.92-80.38a3.07,3.07,0,0,1,3.33-2.82h21a3.22,3.22,0,0,1,3.33,2.56l18.69,80.64c.16.68.42,1,.76,1s.6-.34.77-1l18.18-80.38q.77-2.82,3.33-2.82l23,.51q3.57,0,2.81,3.33l-32,124.67a3.37,3.37,0,0,1-3.58,2.56H467.39a3.21,3.21,0,0,1-3.33-2.56l-18.43-76.8c-.17-.68-.43-1-.77-1s-.6.34-.77,1l-17.15,76.54a3.07,3.07,0,0,1-3.33,2.82H400.32A3.38,3.38,0,0,1,396.73,1238.55Z"/><path class="cls-1" d="M549.43,1087.26a19.57,19.57,0,0,1,0-26.11,17.23,17.23,0,0,1,12.93-5.12q8.19,0,13.18,5t5,13.18a17.52,17.52,0,0,1-18.17,18.18A17.26,17.26,0,0,1,549.43,1087.26Zm-1,153a2.94,2.94,0,0,1-.9-2.17V1113.11a3.07,3.07,0,0,1,3.07-3.07h23.55a3.06,3.06,0,0,1,3.07,3.07V1238a3.06,3.06,0,0,1-3.07,3.07H550.58A2.94,2.94,0,0,1,548.41,1240.21Z"/><path class="cls-1" d="M675.5,1111.83q2.06,1,1.54,3.84l-4.35,23.3c-.18,2-1.37,2.65-3.59,1.79a21.39,21.39,0,0,0-7.68-1.28,41.74,41.74,0,0,0-5.37.51,20.23,20.23,0,0,0-14.47,7.94q-5.76,7.17-5.76,17.92V1238a3.06,3.06,0,0,1-3.07,3.07H609.2a3,3,0,0,1-2.18-.9,2.93,2.93,0,0,1-.89-2.17V1113.37a3,3,0,0,1,3.07-3.07h23.55a3,3,0,0,1,3.07,3.07v11c0,.68.13,1.06.39,1.15s.55-.13.89-.64q9.23-16.12,25.86-16.13A24.82,24.82,0,0,1,675.5,1111.83Z"/><path class="cls-1" d="M792.23,1173.27l-.25,11c0,2-1,3.07-3.07,3.07H720.3a1.13,1.13,0,0,0-1.28,1.28q.51,7.17,1,10.5a21.6,21.6,0,0,0,7.17,13.56q5.89,5.13,14.85,5.12A23.68,23.68,0,0,0,755,1214a22.92,22.92,0,0,0,8.06-10q1.28-2.82,3.84-2l21,4.35q3.07,1,2,3.84-5.13,15.88-17.54,24.45t-30.33,8.58q-21.25,0-34-10.24t-16.64-28.42a111.69,111.69,0,0,1-1.66-14.59q-.39-7.68-.38-20.48,0-13.31,1.28-20.22,2.55-18.69,15.87-29.83t33.79-11.13q22.28,0,36,12.54t15.24,33Q792.24,1162.27,792.23,1173.27Zm-65.66-34.43a21.89,21.89,0,0,0-6.78,13.44,95.89,95.89,0,0,0-.77,12.8,1.13,1.13,0,0,0,1.28,1.28H761a1.13,1.13,0,0,0,1.28-1.28q-.51-8.7-1-12.54A21.05,21.05,0,0,0,754.6,1139a20.14,20.14,0,0,0-14.08-5.12Q732.08,1133.85,726.57,1138.84Z"/><path class="cls-1" d="M886.57,1062.81a2.94,2.94,0,0,1,2.17-.9h23.55a3.06,3.06,0,0,1,3.07,3.08v173a3.06,3.06,0,0,1-3.07,3.07H888.74a3.07,3.07,0,0,1-3.07-3.07v-6.66a1,1,0,0,0-.51-1c-.35-.17-.69,0-1,.51q-9.72,12.29-27.9,12.29-31.23,0-39.93-38.91-2.82-11.77-2.82-28.93,0-16.89,2.3-28.16,7.94-38.91,41.22-38.91,18.43,0,27.13,11.77c.34.52.68.69,1,.52a1,1,0,0,0,.51-1V1065A3,3,0,0,1,886.57,1062.81Zm-1.16,112.76q0-17.4-2.81-26.36-4.1-15.36-17.41-15.36-13.58,0-18.69,15.1-3.33,9.73-3.33,26.62,0,15.63,2.82,25.6,4.6,16.39,18.94,16.39,13.58,0,17.92-16.13Q885.42,1192.47,885.41,1175.57Z"/><path class="cls-1" d="M1358.26,493.28a46.29,46.29,0,0,0-44.51-32.92l-218.77,0h0a10.82,10.82,0,0,0-10.82,10.82V801.89c0,.47-.27,47.25-23.49,93.7-13.45,26.9-31.9,48.29-54.83,63.58-26.38,17.58-59,27.24-97.11,28.76V498a37.7,37.7,0,1,0-75.39,0V801.89c0,.47-.27,47.25-23.49,93.7-13.45,26.9-31.9,48.29-54.83,63.58-26.38,17.58-59,27.24-97.11,28.76V471.14a10.83,10.83,0,0,0-10.82-10.82c-2.12,0-52.41.29-103.38,25.78C496,509.94,439.17,560.89,439.17,668.22V972.1a16,16,0,1,1-32.09,0V477.47a27.94,27.94,0,0,0-55-6.87L247.27,883.84A138.19,138.19,0,0,1,113.21,988.15a38.38,38.38,0,0,1-35.15-22.64c-8.1-18.26-15.41-36.84-21.72-55.23C33,842.29,21.65,773.77,21.65,700.81A672.9,672.9,0,0,1,685.56,27.38a16.44,16.44,0,1,0-.2-21.65A694.56,694.56,0,0,0,0,700.81C0,776.2,11.73,847,35.86,917.31c6.52,19,14.06,38.15,22.41,57a60,60,0,0,0,54.94,35.5,159.79,159.79,0,0,0,155-120.63L373,475.92a6.29,6.29,0,0,1,12.39,1.55V972.1a37.7,37.7,0,0,0,75.39,0V668.22c0-42.6,9.67-78.79,28.74-107.57,15.18-22.91,36.43-41.37,63.17-54.86,33.14-16.73,66.8-21.71,83.52-23.2V999a10.82,10.82,0,0,0,10.83,10.82c107.33,0,158.28-56.84,182.12-104.52C854.68,854.3,855,804,855,801.89V498a16,16,0,1,1,32.09,0V999a10.82,10.82,0,0,0,10.83,10.82c107.33,0,158.28-56.84,182.12-104.52,25.48-51,25.78-101.26,25.78-103.38V482l207.94,0a24.76,24.76,0,0,1,23.82,17.6c20.34,66.58,31.09,136.15,31.09,201.2a672.87,672.87,0,0,1-670.47,673.48,16.44,16.44,0,1,0,0,21.65A694.55,694.55,0,0,0,1390.3,700.81C1390.3,633.64,1379.22,561.88,1358.26,493.28Z"/></g></g></svg>