<svg xmlns="http://www.w3.org/2000/svg" viewBox="0 0 1390.3 1401.54">
  <path d="M1358.26 493.28a46.3 46.3 0 0 0-44.52-32.92h-218.76a10.82 10.82 0 0 0-10.82 10.82v330.7c0 .47-.38 47.92-23.82 94.36-13.49 26.73-31.95 48-54.86 63.17-26.31 17.43-58.82 27-96.75 28.52V498a37.7 37.7 0 1 0-75.39 0v303.88c0 .47-.38 47.92-23.82 94.36-13.49 26.73-32 48-54.86 63.17-26.31 17.43-58.82 27-96.75 28.52V471.14a10.83 10.83 0 0 0-10.82-10.82c-2.12 0-52.41.29-103.38 25.78-47.71 23.84-104.54 74.79-104.54 182.12V972.1a16 16 0 1 1-32.09 0V477.47a27.94 27.94 0 0 0-55-6.87L247.27 883.84a138.19 138.19 0 0 1-134.06 104.31 38.38 38.38 0 0 1-35.15-22.64c-8.1-18.25-15.41-36.84-21.72-55.23C33 842.29 21.65 773.77 21.65 700.81A672.9 672.9 0 0 1 685.56 27.38a16.44 16.44 0 1 0-.2-21.65A694.56 694.56 0 0 0 0 700.81C0 776.2 11.73 847 35.86 917.31c6.52 19 14.06 38.15 22.41 57a60 60 0 0 0 54.94 35.5 159.8 159.8 0 0 0 155-120.63L373 475.92a6.29 6.29 0 0 1 12.39 1.55V972.1a37.7 37.7 0 0 0 75.39 0V668.22c0-42.6 9.67-78.79 28.74-107.57 15.18-22.91 36.43-41.37 63.17-54.86 33.14-16.73 66.8-21.71 83.52-23.2V999a10.82 10.82 0 0 0 10.83 10.82c107.33 0 158.28-56.84 182.12-104.52C854.68 854.3 855 804 855 801.89V498a16 16 0 1 1 32.09 0v501a10.82 10.82 0 0 0 10.83 10.82c107.33 0 158.28-56.84 182.12-104.52 25.48-51 25.78-101.26 25.78-103.38V482h207.94a24.74 24.74 0 0 1 23.81 17.6c20.35 66.57 31.1 136.15 31.1 201.2a672.87 672.87 0 0 1-670.47 673.48 16.44 16.44 0 1 0 0 21.65 694.55 694.55 0 0 0 692.1-695.12c0-67.17-11.08-138.93-32.04-207.53Z" style="fill:red" data-name="Layer 2"/>
</svg>
