<svg xmlns="http://www.w3.org/2000/svg" viewBox="0 0 1390.3 1401.54"><defs><style>.cls-1{fill:#231f20;}</style></defs><title>spokerw_secondary</title><g id="Layer_2" data-name="Layer 2"><g id="Layer_2-2" data-name="Layer 2"><path class="cls-1" d="M756.42,346.12q-12.67-9.74-12.67-25.09v-2.56a2.26,2.26,0,0,1,2.56-2.56h18.18a2.27,2.27,0,0,1,2.56,2.56V320q0,6.9,6.65,12t16.38,5.12q9.74,0,15.75-4.87a14.89,14.89,0,0,0,6-12,12.73,12.73,0,0,0-3.45-9.21,26,26,0,0,0-8.45-5.76q-5-2.18-14.72-5.51a137.7,137.7,0,0,1-20.35-8.06,40.78,40.78,0,0,1-14.21-12q-5.89-7.81-5.89-19.84,0-17.15,12.16-27.14t32.39-10q20.48,0,32.89,10.24t12.42,26.88v.51a2.26,2.26,0,0,1-2.56,2.56H814.15a2.26,2.26,0,0,1-2.56-2.56v-1a15,15,0,0,0-6.15-12.29q-6.13-4.86-16.12-4.87-9.48,0-15.23,4.61a14.43,14.43,0,0,0-5.76,11.78,12.19,12.19,0,0,0,3.32,8.83,27.49,27.49,0,0,0,8.32,5.76q5,2.31,14.72,5.63a182.1,182.1,0,0,1,21.12,8.45A42.42,42.42,0,0,1,830.28,299q6.13,7.68,6.14,19.71,0,17.14-12.54,27.13t-33.8,10Q769.1,355.85,756.42,346.12Z"/><path class="cls-1" d="M956.48,288.78A150.21,150.21,0,0,1,953.92,318q-7.68,38.4-41.47,38.4-18.69,0-27.65-13.06c-.17-.51-.43-.72-.77-.64s-.51.39-.51.9v57.08A2.26,2.26,0,0,1,881,403.2H861.51a2.26,2.26,0,0,1-2.56-2.56V226.57a2.26,2.26,0,0,1,2.56-2.56H881a2.26,2.26,0,0,1,2.56,2.56v8.19a.85.85,0,0,0,.39.77c.25.17.55.09.89-.26Q894.27,222,913.47,222q16.13,0,25.86,9.22t14.08,28.41A129.78,129.78,0,0,1,956.48,288.78Zm-24.83.51q0-18.18-3.07-28.42-2.82-8.7-7.94-13.18t-13.57-4.48q-7.94,0-12.8,4.48t-7.42,12.93q-3.08,10.23-3.07,28.67,0,18.94,3.32,29.18,2.56,8.19,7.3,12.42t12.42,4.22q14.83,0,21-16.13Q931.65,308.23,931.65,289.29Z"/><path class="cls-1" d="M995.13,346q-12.79-10.37-15.35-28.29a181.77,181.77,0,0,1-2-28.67,174,174,0,0,1,2-28.41q2.55-17.67,15.35-28.16T1027.9,222q19.71,0,32.51,10.5t15.36,27.9q2.06,11,2,28.67t-2,28.67q-2.57,17.93-15.23,28.29t-32.64,10.37Q1007.94,356.36,995.13,346Zm48.77-16.77a25.64,25.64,0,0,0,8.06-15.61,221.21,221.21,0,0,0,1.29-24.58,210.1,210.1,0,0,0-1.29-24.32,25.64,25.64,0,0,0-8.06-15.61,23.34,23.34,0,0,0-16.25-5.89,23,23,0,0,0-16,5.89,25.65,25.65,0,0,0-8.07,15.61,226.47,226.47,0,0,0-1,24.32,229.58,229.58,0,0,0,1,24.58,25.65,25.65,0,0,0,8.07,15.61q6.52,5.89,16.25,5.89A23,23,0,0,0,1043.9,329.22Z"/><path class="cls-1" d="M1103.16,351.75V177.67a2.26,2.26,0,0,1,2.56-2.56h19.46a2.27,2.27,0,0,1,2.56,2.56v97.79a.8.8,0,0,0,.51.77.51.51,0,0,0,.77-.25L1169,225.55a4.11,4.11,0,0,1,3.33-1.54h21.5a2.15,2.15,0,0,1,2,.9c.34.6.17,1.32-.51,2.17l-29.7,38.66a1.8,1.8,0,0,0-.25,1.53l34.81,84,.26,1c0,1.37-.77,2.05-2.31,2.05h-20.48a2.81,2.81,0,0,1-2.81-2.05l-25.6-67.07c-.34-1-.77-1.11-1.28-.25l-19.71,24.57a4.17,4.17,0,0,0-.51,1.28v41a2.26,2.26,0,0,1-2.56,2.56h-19.46A2.26,2.26,0,0,1,1103.16,351.75Z"/><path class="cls-1" d="M1276.09,330.89a26,26,0,0,0,9.08-11.65,2.38,2.38,0,0,1,3.08-1.79l17.4,3.84q2.56.76,1.79,3.07-4.86,15.11-16.89,23.55t-29.44,8.45q-20,0-32.26-10T1213.24,319a116.38,116.38,0,0,1-1.66-15.23q-.39-8.06-.39-21.37a132.59,132.59,0,0,1,1.28-20.74q2.31-17.91,15.11-28.8T1259.83,222q21.24,0,34.3,12t14.59,31.75q.78,8.7.77,32a2.26,2.26,0,0,1-2.56,2.56h-70.14a.9.9,0,0,0-1,1,88.47,88.47,0,0,0,.77,12.54,24,24,0,0,0,7.93,15.36q6.66,5.89,16.9,5.89A25,25,0,0,0,1276.09,330.89Zm-32-81.79a24.81,24.81,0,0,0-7.55,15.36,135.19,135.19,0,0,0-.77,15.1.9.9,0,0,0,1,1h47.1a.91.91,0,0,0,1-1c-.35-6.82-.69-11.78-1-14.85a25.17,25.17,0,0,0-7.68-15.49q-6.39-6-16.12-6T1244.09,249.1Z"/><path class="cls-1" d="M237,1111.83q2,1,1.53,3.84l-4.35,23.3c-.17,2-1.37,2.65-3.58,1.79a21.39,21.39,0,0,0-7.68-1.28,41.86,41.86,0,0,0-5.38.51,20.23,20.23,0,0,0-14.46,7.94q-5.76,7.17-5.76,17.92V1238a3.07,3.07,0,0,1-3.07,3.07H170.71a3.07,3.07,0,0,1-3.08-3.07V1113.37a3.06,3.06,0,0,1,3.08-3.07h23.55a3.06,3.06,0,0,1,3.07,3.07v11c0,.68.13,1.06.38,1.15s.56-.13.9-.64q9.21-16.12,25.85-16.13A24.86,24.86,0,0,1,237,1111.83Z"/><path class="cls-1" d="M353.74,1173.27l-.26,11q0,3.08-3.07,3.07h-68.6a1.13,1.13,0,0,0-1.28,1.28q.51,7.17,1,10.5a21.55,21.55,0,0,0,7.17,13.56q5.88,5.13,14.85,5.12a23.65,23.65,0,0,0,12.92-3.84,22.87,22.87,0,0,0,8.07-10q1.28-2.82,3.84-2l21,4.35q3.08,1,2.05,3.84-5.13,15.88-17.54,24.45t-30.33,8.58q-21.26,0-34.05-10.24t-16.64-28.42a108.36,108.36,0,0,1-1.66-14.59q-.39-7.68-.39-20.48,0-13.31,1.28-20.22,2.56-18.69,15.87-29.83t33.79-11.13q22.28,0,36,12.54t15.23,33Q353.74,1162.27,353.74,1173.27Zm-65.66-34.43a21.89,21.89,0,0,0-6.78,13.44,94.25,94.25,0,0,0-.77,12.8,1.13,1.13,0,0,0,1.28,1.28h40.7a1.13,1.13,0,0,0,1.28-1.28q-.51-8.7-1-12.54a21.1,21.1,0,0,0-6.66-13.57,20.17,20.17,0,0,0-14.08-5.12Q293.58,1133.85,288.08,1138.84Z"/><path class="cls-1" d="M396.75,1238.55,365,1113.37v-1c0-1.53.94-2.3,2.82-2.3h23a3.08,3.08,0,0,1,3.33,2.82l17.66,80.38c.17.68.42,1,.77,1s.59-.34.77-1l17.92-80.38a3.06,3.06,0,0,1,3.32-2.82h21a3.22,3.22,0,0,1,3.33,2.56l18.69,80.64c.17.68.42,1,.77,1s.59-.34.77-1l18.17-80.38q.76-2.82,3.33-2.82l23,.51q3.59,0,2.81,3.33l-32,124.67a3.38,3.38,0,0,1-3.59,2.56H467.4a3.21,3.21,0,0,1-3.33-2.56l-18.43-76.8c-.17-.68-.43-1-.77-1s-.6.34-.77,1L427,1238.29a3.06,3.06,0,0,1-3.32,2.82h-23.3A3.36,3.36,0,0,1,396.75,1238.55Z"/><path class="cls-1" d="M549.44,1087.26a19.57,19.57,0,0,1,0-26.11,17.24,17.24,0,0,1,12.93-5.12q8.19,0,13.18,5t5,13.18a17.52,17.52,0,0,1-18.18,18.18A17.28,17.28,0,0,1,549.44,1087.26Zm-1,153a2.94,2.94,0,0,1-.9-2.17V1113.11a3.07,3.07,0,0,1,3.07-3.07h23.56a3.07,3.07,0,0,1,3.07,3.07V1238a3.07,3.07,0,0,1-3.07,3.07H550.59A2.94,2.94,0,0,1,548.42,1240.21Z"/><path class="cls-1" d="M675.51,1111.83q2.06,1,1.54,3.84L672.7,1139q-.26,3.08-3.59,1.79a21.33,21.33,0,0,0-7.67-1.28,41.86,41.86,0,0,0-5.38.51,20.23,20.23,0,0,0-14.46,7.94q-5.76,7.17-5.76,17.92V1238a3.07,3.07,0,0,1-3.08,3.07H609.21a3.07,3.07,0,0,1-3.07-3.07V1113.37a3.06,3.06,0,0,1,3.07-3.07h23.55a3.06,3.06,0,0,1,3.08,3.07v11c0,.68.12,1.06.38,1.15s.55-.13.9-.64q9.21-16.12,25.85-16.13A24.8,24.8,0,0,1,675.51,1111.83Z"/><path class="cls-1" d="M792.25,1173.27l-.26,11q0,3.08-3.07,3.07H720.31a1.13,1.13,0,0,0-1.28,1.28q.51,7.17,1,10.5a21.55,21.55,0,0,0,7.17,13.56q5.88,5.13,14.84,5.12A23.68,23.68,0,0,0,755,1214a22.85,22.85,0,0,0,8.06-10q1.29-2.82,3.84-2l21,4.35q3.06,1,2,3.84-5.12,15.88-17.53,24.45t-30.34,8.58q-21.24,0-34-10.24t-16.64-28.42a110,110,0,0,1-1.67-14.59q-.37-7.68-.38-20.48,0-13.31,1.28-20.22,2.55-18.69,15.87-29.83t33.79-11.13q22.28,0,36,12.54t15.23,33Q792.25,1162.27,792.25,1173.27Zm-65.66-34.43a21.85,21.85,0,0,0-6.79,13.44,95.89,95.89,0,0,0-.77,12.8,1.13,1.13,0,0,0,1.28,1.28H761a1.13,1.13,0,0,0,1.28-1.28q-.52-8.7-1-12.54a21,21,0,0,0-6.65-13.57,20.17,20.17,0,0,0-14.08-5.12Q732.08,1133.85,726.59,1138.84Z"/><path class="cls-1" d="M886.58,1062.81a2.94,2.94,0,0,1,2.17-.9h23.56a3.07,3.07,0,0,1,3.07,3.08v173a3.07,3.07,0,0,1-3.07,3.07H888.75a3.07,3.07,0,0,1-3.07-3.07v-6.66a1,1,0,0,0-.51-1q-.51-.25-1,.51-9.74,12.29-27.91,12.29-31.23,0-39.93-38.91-2.82-11.77-2.82-28.93,0-16.89,2.31-28.16,7.92-38.91,41.21-38.91,18.43,0,27.14,11.77c.34.52.68.69,1,.52a1,1,0,0,0,.51-1V1065A3,3,0,0,1,886.58,1062.81Zm-1.15,112.76q0-17.4-2.82-26.36-4.1-15.36-17.41-15.36-13.56,0-18.68,15.1-3.33,9.73-3.33,26.62,0,15.63,2.81,25.6,4.62,16.39,19,16.39,13.56,0,17.92-16.13Q885.42,1192.47,885.43,1175.57Z"/><path class="cls-1" d="M1358.26,493.28a46.3,46.3,0,0,0-44.52-32.92l-218.76,0h0a10.82,10.82,0,0,0-10.82,10.82V801.88c0,.47-.38,47.92-23.82,94.36-13.49,26.73-31.95,48-54.86,63.17-26.31,17.43-58.82,27-96.75,28.52V498a37.7,37.7,0,1,0-75.39,0V801.88c0,.47-.38,47.92-23.82,94.36-13.49,26.73-32,48-54.86,63.17-26.31,17.43-58.82,27-96.75,28.52V471.14a10.83,10.83,0,0,0-10.82-10.82c-2.12,0-52.41.29-103.38,25.78C496,509.94,439.17,560.89,439.17,668.22V972.1a16,16,0,1,1-32.09,0V477.47a27.94,27.94,0,0,0-55-6.87L247.27,883.84A138.19,138.19,0,0,1,113.21,988.15a38.38,38.38,0,0,1-35.15-22.64c-8.1-18.25-15.41-36.84-21.72-55.23C33,842.29,21.65,773.77,21.65,700.81A672.9,672.9,0,0,1,685.56,27.38a16.44,16.44,0,1,0-.2-21.65A694.56,694.56,0,0,0,0,700.81C0,776.2,11.73,847,35.86,917.31c6.52,19,14.06,38.15,22.41,57a60,60,0,0,0,54.94,35.5,159.8,159.8,0,0,0,155-120.63L373,475.92a6.29,6.29,0,0,1,12.39,1.55V972.1a37.7,37.7,0,0,0,75.39,0V668.22c0-42.6,9.67-78.79,28.74-107.57,15.18-22.91,36.43-41.37,63.17-54.86,33.14-16.73,66.8-21.71,83.52-23.2V999a10.82,10.82,0,0,0,10.83,10.82c107.33,0,158.28-56.84,182.12-104.52C854.68,854.3,855,804,855,801.89V498a16,16,0,1,1,32.09,0V999a10.82,10.82,0,0,0,10.83,10.82c107.33,0,158.28-56.84,182.12-104.52,25.48-51,25.78-101.26,25.78-103.38V482l207.94,0a24.74,24.74,0,0,1,23.81,17.6c20.35,66.57,31.1,136.15,31.1,201.2a672.87,672.87,0,0,1-670.47,673.48,16.44,16.44,0,1,0,0,21.65A694.55,694.55,0,0,0,1390.3,700.81C1390.3,633.64,1379.22,561.88,1358.26,493.28Z"/></g></g></svg>