<svg xmlns="http://www.w3.org/2000/svg" viewBox="0 0 2234.5 609.85"><defs><style>.cls-1{fill:#231f20;}</style></defs><title>spokerw_primary</title><g id="Layer_2" data-name="Layer 2"><g id="Layer_2-2" data-name="Layer 2"><path class="cls-1" d="M1194.48,264.55q-18.2-14.31-18.18-36.76v-3.48c0-2.58,1.28-3.87,3.86-3.87h19q3.87,0,3.87,3.87V227q0,12.39,11,21.47t28.44,9.09q17,0,27.47-8.89a28.24,28.24,0,0,0,10.44-22.45,23.69,23.69,0,0,0-5.8-16.25,42,42,0,0,0-14.31-10.44q-8.52-3.87-23.61-8.9a224.08,224.08,0,0,1-30.18-12.38,59.34,59.34,0,0,1-20.31-17.22q-8.33-11-8.32-28.05,0-24.77,17.41-39.27t46-14.51q29.4,0,47,15.09t17.6,38.69v.77q0,3.87-3.87,3.87h-17.8q-3.87,0-3.87-3.87v-1.55q0-13.14-10.63-21.86t-28.44-8.7q-16.65,0-26.89,8.32a26.38,26.38,0,0,0-10.26,21.47q0,13.55,10.26,20.51t32.3,14.7A234.38,234.38,0,0,1,1278.05,179a61.77,61.77,0,0,1,21.09,17.22q8.7,11,8.71,28.44,0,24.77-17.8,39.46t-47.59,14.7Q1212.65,278.86,1194.48,264.55Z"/><path class="cls-1" d="M1482.73,177.11q0,26.31-3.87,46-6.19,29-21.86,42.75t-41.59,13.74q-15.87,0-26.12-5.42a41.34,41.34,0,0,1-16.45-15.86c-.25-.78-.64-1.1-1.16-1s-.77.58-.77,1.36v89.37q0,3.87-3.87,3.87h-19.73q-3.87,0-3.87-3.87V85c0-2.57,1.29-3.87,3.87-3.87H1367c2.58,0,3.87,1.3,3.87,3.87v14.7c0,.78.25,1.23.77,1.36s.91-.2,1.16-1q13.94-22,44.5-22,24.38,0,38.88,13t21.48,41.59A186.79,186.79,0,0,1,1482.73,177.11ZM1454.87,179q0-30.94-5.8-48.36-5-14.31-13.93-21.67t-23.22-7.35q-13.55,0-21.86,7.35t-13,21.28q-5.8,17.42-5.8,48.75,0,32.11,6.57,49.91,4.65,13.17,12.39,20.12t20.89,7q25.53,0,36.37-25.93Q1454.87,210.39,1454.87,179Z"/><path class="cls-1" d="M1538.44,264.74q-18.2-15.27-22-41.2a381,381,0,0,1-2.32-44.89,361,361,0,0,1,2.32-44.1q3.48-25.55,21.86-41t46.62-15.47q28.25,0,46.62,15.47t21.86,41q2.33,15.48,2.33,44.1,0,29.41-2.33,44.89-3.48,25.92-21.86,41.2T1584.87,280Q1556.63,280,1538.44,264.74Zm74.48-19q11.41-10.25,13.74-27.27,1.54-14.31,1.54-39.47,0-25.53-1.54-39.46-2-17-13.35-27.28t-28.44-10.25q-17,0-28.24,10.25t-13.55,27.28q-1.55,13.92-1.54,39.46t1.54,39.47q1.93,17,13.35,27.27T1584.87,256Q1601.51,256,1612.92,245.78Z"/><path class="cls-1" d="M1695.14,273.06V10q0-3.87,3.87-3.87h19.73q3.87,0,3.87,3.87V167.05a1.23,1.23,0,0,0,.77,1.16.76.76,0,0,0,1.16-.39l70-84.35a5.85,5.85,0,0,1,4.64-2.32h22c1.55,0,2.58.46,3.1,1.36s.25,2-.78,3.29l-44.1,54.94a1.91,1.91,0,0,0-.39,1.93l52.23,129.62.39,1.55q0,3.09-3.48,3.09h-20.51a4.24,4.24,0,0,1-4.25-3.09L1761.3,163.18a1.74,1.74,0,0,0-1.16-1,.94.94,0,0,0-1.16.58l-35.6,43a6.65,6.65,0,0,0-.77,1.93v65.39q0,3.87-3.87,3.87H1699Q1695.14,276.93,1695.14,273.06Z"/><path class="cls-1" d="M1946.44,248.49a41.76,41.76,0,0,0,15.28-20.31q1.15-3.48,4.64-2.71l17.8,3.48a3.15,3.15,0,0,1,2.51,1.74,4.5,4.5,0,0,1,.2,2.91q-6.58,21.66-24,34T1920.71,280q-28.26,0-46-14.9t-22.05-40.43a178.94,178.94,0,0,1-1.94-22.83q-.39-13.16-.38-21.86V167.82a267.08,267.08,0,0,1,1.55-32.11q3.09-25.92,21.47-41.79t46.24-15.86q29.78,0,48.36,17T1988.8,140q1.17,12.78,1.16,46.82,0,3.87-3.87,3.87H1879.31a1.37,1.37,0,0,0-1.55,1.55q0,12,.77,26.69,1.93,16.65,13.35,26.89T1921.09,256Q1935.79,256,1946.44,248.49Zm-55-136.19q-11,10.26-13,26.89-.78,16.25-.77,27.08a1.36,1.36,0,0,0,1.55,1.55h81.63a1.37,1.37,0,0,0,1.55-1.55q0-11.22-1.55-26.69-1.93-16.64-13-27.09t-28-10.44Q1902.52,102.05,1891.49,112.3Z"/><path class="cls-1" d="M1282.7,402.41c1.8.78,2.44,2.32,1.93,4.65l-5.8,29.4c-.26,2.58-1.81,3.36-4.65,2.32a40.38,40.38,0,0,0-12.76-1.93,49.32,49.32,0,0,0-7.36.39Q1239,438.4,1228.92,451t-10.06,30V592.77c0,2.59-1.3,3.87-3.87,3.87h-29.41c-2.58,0-3.87-1.28-3.87-3.87V403.57q0-3.85,3.87-3.86H1215c2.57,0,3.87,1.29,3.87,3.86v24.77c0,.77.19,1.22.58,1.35s.7-.06,1-.58q13.93-31.33,42.56-31.34Q1274.57,397.77,1282.7,402.41Z"/><path class="cls-1" d="M1394.71,561.24a39.16,39.16,0,0,0,13.73-17.6c.78-2.32,2.32-3.23,4.65-2.71l26.31,5.8c2.57.78,3.48,2.32,2.7,4.65q-7.35,22.83-25.53,35.59t-44.5,12.77q-30.18,0-48.75-15.09t-23.6-41.4a178.42,178.42,0,0,1-2.51-23q-.59-12.19-.58-32.31,0-19.73,1.93-31.34,3.48-27.07,22.83-43.53t48.75-16.44q32.11,0,51.85,18.18t22,48q1.15,13.16,1.16,48.37,0,3.87-3.87,3.87h-106a1.37,1.37,0,0,0-1.55,1.54,136.32,136.32,0,0,0,1.16,19q1.93,14.32,12,23.22t25.54,8.9Q1385.62,567.63,1394.71,561.24Zm-48.37-123.62q-9.48,8.91-11.41,23.22a208.41,208.41,0,0,0-1.16,22.83,1.36,1.36,0,0,0,1.55,1.54h71.19a1.37,1.37,0,0,0,1.55-1.54q-.78-15.48-1.55-22.45-1.93-14.31-11.61-23.4t-24.37-9.1Q1355.82,428.72,1346.34,437.62Z"/><path class="cls-1" d="M1505.56,593.16,1457.2,404l-.39-1.55q0-2.7,3.48-2.7h29.41a4,4,0,0,1,4.26,3.48l30.56,134.26c.26.77.52,1.16.78,1.16s.51-.39.77-1.16l31-134.26a4,4,0,0,1,4.26-3.48h26.31a4,4,0,0,1,4.25,3.48l31.73,134.64c.26.78.52,1.16.78,1.16s.51-.38.77-1.16l31.34-134.64a4,4,0,0,1,4.26-3.48l29,.38a3.6,3.6,0,0,1,2.91,1.16,2.92,2.92,0,0,1,.19,3.1l-48.36,188.81c-.26,2.32-1.69,3.48-4.26,3.48h-29.79a4,4,0,0,1-4.26-3.48l-31.34-128.84c-.26-.77-.52-1.16-.77-1.16s-.52.39-.78,1.16l-30.18,128.84a4,4,0,0,1-4.25,3.48h-29A4,4,0,0,1,1505.56,593.16Z"/><path class="cls-1" d="M1720.3,361.79q-7-7-7-17.8,0-11.22,7-18t17.8-6.77q10.83,0,17.79,7t7,17.8q0,10.83-7.16,17.8a24.28,24.28,0,0,1-17.6,7Q1727.26,368.75,1720.3,361.79Zm-1.16,231V403.57q0-3.85,3.87-3.86h29.4q3.87,0,3.87,3.86v189.2c0,2.59-1.29,3.87-3.87,3.87H1723C1720.43,596.64,1719.14,595.36,1719.14,592.77Z"/><path class="cls-1" d="M1898.27,402.41c1.8.78,2.45,2.32,1.94,4.65l-5.81,29.4c-.26,2.58-1.8,3.36-4.64,2.32a40.44,40.44,0,0,0-12.77-1.93,49.26,49.26,0,0,0-7.35.39q-15.09,1.15-25.15,13.73t-10.06,30V592.77c0,2.59-1.29,3.87-3.87,3.87h-29.4c-2.58,0-3.87-1.28-3.87-3.87V403.57q0-3.85,3.87-3.86h29.4q3.87,0,3.87,3.86v24.77c0,.77.2,1.22.58,1.35s.71-.06,1-.58q13.93-31.33,42.56-31.34Q1890.15,397.77,1898.27,402.41Z"/><path class="cls-1" d="M2010.28,561.24a39.18,39.18,0,0,0,13.74-17.6c.77-2.32,2.32-3.23,4.64-2.71l26.31,5.8c2.58.78,3.49,2.32,2.71,4.65q-7.35,22.83-25.53,35.59t-44.5,12.77q-30.18,0-48.75-15.09t-23.6-41.4a178.37,178.37,0,0,1-2.52-23q-.57-12.19-.58-32.31,0-19.73,1.94-31.34,3.48-27.07,22.82-43.53t48.76-16.44q32.1,0,51.84,18.18t22.06,48q1.15,13.16,1.16,48.37c0,2.58-1.3,3.87-3.87,3.87h-106a1.36,1.36,0,0,0-1.54,1.54,134.8,134.8,0,0,0,1.16,19q1.92,14.32,12,23.22t25.54,8.9Q2001.18,567.63,2010.28,561.24Zm-48.36-123.62q-9.48,8.91-11.41,23.22a206,206,0,0,0-1.16,22.83,1.36,1.36,0,0,0,1.54,1.54h71.2a1.36,1.36,0,0,0,1.54-1.54q-.78-15.48-1.54-22.45-2-14.31-11.61-23.4t-24.38-9.1Q1971.4,428.72,1961.92,437.62Z"/><path class="cls-1" d="M2201.23,325.8h29.4c2.58,0,3.87,1.3,3.87,3.87v263.1c0,2.59-1.29,3.87-3.87,3.87h-29.4c-2.59,0-3.87-1.28-3.87-3.87V579.62a1.25,1.25,0,0,0-.78-1.16.77.77,0,0,0-1.16.39q-13.92,20.88-43.72,20.89-24,0-38.69-13.93t-21.67-42.95a196.44,196.44,0,0,1-4.64-44.11,226.26,226.26,0,0,1,3.87-44.1q11.61-58,63.07-58,15.09,0,25.14,5a42.3,42.3,0,0,1,16.64,15.09,2.11,2.11,0,0,0,1.36.77c.38,0,.58-.38.58-1.16V329.67C2197.36,327.1,2198.64,325.8,2201.23,325.8ZM2197,498q0-29-5.42-44.11-3.48-12.37-10.64-18.76t-18.76-6.39q-22.83,0-31.73,24.38-6.2,17.41-6.19,44.88,0,27.85,5,42.95,8.13,26.7,32.5,26.7,22.44,0,30.18-25.93Q2197,526.23,2197,498Z"/><path class="cls-1" d="M1082.83,0a22.85,22.85,0,0,0-14.31,40.66V380c0,.49-.42,49.6-24.68,97.56-29.75,58.81-81.19,90.38-153,94V62.25a42.28,42.28,0,0,0-84.56,0V380c0,.48-.27,48.72-24.26,96.69C752.32,536,700.73,567.9,628.54,571.53V34.15A14.18,14.18,0,0,0,614.36,20c-2.24,0-55.48.31-109.37,27.25-50.58,25.29-110.88,79.31-110.88,193V558a13.92,13.92,0,1,1-27.83,0V40.76c0-16.67-11.56-29.76-28.11-31.83s-31,7.78-35.07,24L193.54,465A141.62,141.62,0,0,1,56.14,571.88H41.46a23.32,23.32,0,1,0,.72,28.36h14A170,170,0,0,0,221,471.94L330.59,39.85c.25-1,.81-3.18,4.07-2.78s3.26,2.71,3.26,3.69V558a42.28,42.28,0,1,0,84.55,0V240.22c0-79.28,31.75-135.53,94.36-167.21,32.36-16.37,65.24-21.88,83.35-23.74V586.06a14.18,14.18,0,0,0,14.18,14.18c113.7,0,167.71-60.29,193-110.87,26.94-53.9,27.25-107.14,27.25-109.38V62.25a13.92,13.92,0,0,1,27.84,0V586.06a14.18,14.18,0,0,0,14.18,14.18c113.69,0,167.71-60.29,193-110.87,26.94-53.9,27.25-107.14,27.25-109.38V40.87A22.84,22.84,0,0,0,1082.83,0Z"/></g></g></svg>